Simulation
nRows=49
nColumns=15
endheader
time  TH_x TH_y TH_z SC_y  SC_z  SC_x  AC_y  AC_z  AC_x  GH_y  GH_z  GH_yy  EL_x  PS_y
0.0  0.000000  0.000000  0.000000  -26.87679270160545  -1.1149190697539908  1.3843653307420998  51.3584490198801  6.545370952628873  -2.8515381244558404  19.058179817685723  13.210135143187314  25.290959641270515  27.08995941977845  0.000000
0.039  0.000000  0.000000  0.000000  -26.81609698843408  -0.7912708628462465  1.4818210820488433  50.87971633107835  6.729318097047539  -2.972805730901466  18.014118349230476  13.446577213575768  26.25291035882566  26.689129750754304  0.000000
0.078  0.000000  0.000000  0.000000  -26.679772281500803  -0.7079022797917066  1.5920316032426083  50.5893933306665  6.592192246183522  -3.1583343963360666  17.321809306968625  13.513170830302847  26.86647963477011  26.23240764360327  0.000000
0.11699999999999999  0.000000  0.000000  0.000000  -26.550293997079244  -0.7398532993174193  1.7413760127224642  50.54370339354761  6.355952934547854  -3.2994218009388634  16.864278164765157  13.483174135792623  27.208034932501878  25.88246259652617  0.000000
0.156  0.000000  0.000000  0.000000  -26.40647269604421  -0.8377367452148865  1.854243775639024  50.64659664514053  6.153277490532406  -3.3306214988959106  16.874111311411387  13.484106481043241  26.886738278968032  25.573197946086424  0.000000
0.195  0.000000  0.000000  0.000000  -26.292012849341567  -0.9653912891115026  1.9127790621234355  50.90338923070838  6.054181525497476  -3.27056073341774  17.621164776623495  13.652374325876446  25.654994618651248  25.31170974292722  0.000000
0.23399999999999999  0.000000  0.000000  0.000000  -26.207634863717537  -1.075346502778126  1.9090908554011978  51.19388093480356  6.067821484363874  -3.1189797225274343  19.31501742084597  14.055230645695495  23.293757990006366  25.106689976027052  0.000000
0.273  0.000000  0.000000  0.000000  -26.184624370182405  -1.155218486999543  1.8694352762968551  51.505758716955555  6.188485806605979  -2.9298384248739016  22.04712052886961  14.748841803258701  19.731109667242592  24.949465632262637  0.000000
0.312  0.000000  0.000000  0.000000  -26.22368179633514  -1.1958045859270547  1.8339763429371352  51.79613642996055  6.39001652460455  -2.7271162807402187  25.61040155742041  15.750743376984532  15.169497856841648  24.85236731564507  0.000000
0.351  0.000000  0.000000  0.000000  -26.31014218036559  -1.1995150947665818  1.8405253637927839  52.09167121136826  6.634870332747083  -2.5327907327914  29.60015859652098  17.071689339624733  10.000195871720534  24.798250700841646  0.000000
0.39  0.000000  0.000000  0.000000  -26.408041003790178  -1.1742140267950796  1.9139198155211194  52.41097899057245  6.901437834458001  -2.3470877509321126  33.51058907493583  18.685704446797715  4.734867434209593  24.79750185933003  0.000000
0.429  0.000000  0.000000  0.000000  -26.485358685682485  -1.124039501243232  2.056589582165105  52.77860206212359  7.176649172960519  -2.162740973493823  36.97969815749963  20.54838186157935  -0.24987071539120068  24.84333060973601  0.000000
0.46799999999999997  0.000000  0.000000  0.000000  -26.52250734968931  -1.054763053172876  2.2555892383043488  53.20008377530312  7.467506020988006  -1.9726989873616465  39.84524688631062  22.60474032561876  -4.7531183840594995  24.93484449631973  0.000000
0.507  0.000000  0.000000  0.000000  -26.504462212351946  -0.9634119476679105  2.4921196484242283  53.66517982975333  7.778641087624812  -1.7681841289739904  42.10856118105815  24.803260715578993  -8.733103404841279  25.049750487069865  0.000000
0.546  0.000000  0.000000  0.000000  -26.426975956005624  -0.8470466085780298  2.752179873244996  54.15623971685595  8.119155709079354  -1.5525615639936234  43.86756566130082  27.1008486379826  -12.248011590577764  25.169065987424677  0.000000
0.585  0.000000  0.000000  0.000000  -26.300305576369695  -0.6969157016534743  3.033485188165586  54.64243933023451  8.491305765225913  -1.3319273524366722  45.26182428809064  29.4562880110632  -15.412275681870552  25.270815507931687  0.000000
0.624  0.000000  0.000000  0.000000  -26.16563935064508  -0.5003631048021985  3.3491322512699426  55.09261967058031  8.891730023080497  -1.123689476999916  46.46088903993769  31.834630951537342  -18.388864071298375  25.341905428778656  0.000000
0.663  0.000000  0.000000  0.000000  -26.072393342229688  -0.2456754811328833  3.7277647354404118  55.47699699500576  9.301983108168013  -0.9443321254985866  47.605266094821204  34.204118425998544  -21.319749024421327  25.368931659082918  0.000000
0.702  0.000000  0.000000  0.000000  -26.049653651207453  0.07149196021912951  4.2005868226661995  55.784209412298885  9.699371440932854  -0.8091489820098581  48.772410787920855  36.543428000789625  -24.276705139474146  25.34252789935248  0.000000
0.741  0.000000  0.000000  0.000000  -26.09116897134351  0.4522340665332285  4.791064680018423  56.02343595223341  10.057801885484741  -0.7163843772424863  49.94287825206211  38.83930833685622  -27.210888933577657  25.263794340391044  0.000000
0.78  0.000000  0.000000  0.000000  -26.160586581580233  0.8908838034343912  5.506074430291487  56.220093693912226  10.36339076358178  -0.6550746629140641  51.0416574598072  41.08335766659154  -30.00159079331894  25.140495949338842  0.000000
0.819  0.000000  0.000000  0.000000  -26.221598373164696  1.3785811518378859  6.332230516483147  56.397896433065036  10.610185485960182  -0.6044698676667069  51.989982777955966  43.26793465522879  -32.52135144832326  24.98577049912975  0.000000
0.858  0.000000  0.000000  0.000000  -26.259171667329014  1.9025100005325983  7.235505949481206  56.56844057970252  10.80218505292819  -0.544306920604826  52.74855521690277  45.38347720888992  -34.70160967543461  24.818991397885323  0.000000
0.897  0.000000  0.000000  0.000000  -26.285524203486457  2.4460966761250944  8.172167393041265  56.7302308100962  10.947626280364313  -0.459010090494396  53.30906914872856  47.416502786492735  -36.52892399751368  24.66676077268138  0.000000
0.9359999999999999  0.000000  0.000000  0.000000  -26.326292821589313  2.99461765972125  9.104246255250938  56.87818974492477  11.058589451622703  -0.3415327780084537  53.6811046833848  49.348481388780655  -38.029733544222374  24.55553161785902  0.000000
0.975  0.000000  0.000000  0.000000  -26.39902849236852  3.5341442827907716  10.010850782207868  57.00937270647034  11.146578652204633  -0.19452788867274964  53.878546155426804  51.16193349514579  -39.24239545126317  24.50159556727956  0.000000
1.014  0.000000  0.000000  0.000000  -26.50467080160705  4.058288374570552  10.884897058487754  57.12103439420331  11.223087002748905  -0.024742818870770154  53.92750403543259  52.84770986142781  -40.21671371158675  24.49607399847355  0.000000
1.053  0.000000  0.000000  0.000000  -26.635492555504985  4.56727750604034  11.733929663656932  57.210493900801055  11.29417133622108  0.16022920563331855  53.86038788188952  54.40367081047919  -41.00581831447214  24.513307325792837  0.000000
1.092  0.000000  0.000000  0.000000  -26.78396432102091  5.065567263191064  12.57635211563021  57.27464896754386  11.358865837722856  0.35071865453188  53.71313319317131  55.82941891622877  -41.667869275849874  24.528066306073594  0.000000
1.131  0.000000  0.000000  0.000000  -26.95253200737572  5.557604794270499  13.432441429752577  57.310787230844845  11.413356109920635  0.5397343960106488  53.523408313084836  57.120711042946624  -42.25771369103953  24.525607083190593  0.000000
1.17  0.000000  0.000000  0.000000  -27.151400504210642  6.047214568166589  14.319523700218609  57.31726268306677  11.452649426140113  0.7225361840053641  53.32833113238892  58.270400642804056  -42.824681608877526  24.501242068235715  0.000000
1.209  0.000000  0.000000  0.000000  -27.39293311926189  6.537302980874929  15.249096869835357  57.29520167390073  11.473500629697416  0.9003964375151821  53.15725524209792  59.2719860870494  -43.39997985850012  24.454285715314086  0.000000
1.248  0.000000  0.000000  0.000000  -27.6782006829483  7.030352966891498  16.224565158230465  57.248821271385864  11.477430457536105  1.0797458620322251  53.02098623420225  60.12540251692554  -43.98295225876574  24.379560974357837  0.000000
1.287  0.000000  0.000000  0.000000  -27.991148029500597  7.52697812853555  17.24185060827954  57.185547359961994  11.47114161537156  1.272609028574051  52.905699784957704  60.83751770187072  -44.530686830665395  24.26332228697024  0.000000
1.326  0.000000  0.000000  0.000000  -28.30493875050447  8.025493483809898  18.28967548011853  57.11321495526144  11.462222382396922  1.4914142895518725  52.78549001854621  61.42218404027819  -44.9798465628228  24.08637087027672  0.000000
1.365  0.000000  0.000000  0.000000  -28.596443116693564  8.517754116197064  19.347532873511284  57.03858008853766  11.454286768218308  1.7433023056922838  52.63981213583954  61.89918935475867  -45.28109876190173  23.837786816979857  0.000000
1.404  0.000000  0.000000  0.000000  -28.85568670708854  8.986988884694133  20.383613977323233  56.96567201416945  11.446158529084354  2.0216379385798593  52.46454303831297  62.292728487229724  -45.43304050558116  23.532452494542333  0.000000
1.443  0.000000  0.000000  0.000000  -29.090997346226846  9.410339839933052  21.36247600643662  56.89917712170802  11.432038363623247  2.3047828992774297  52.2717681527042  62.62632823780383  -45.479232346612896  23.212855624969354  0.000000
1.482  0.000000  0.000000  0.000000  -29.313730734521002  9.765665517898663  22.251213598037705  56.843818584073134  11.406837994664835  2.5620890414011295  52.081815550492166  62.91722292894942  -45.48180695077118  22.926914115071277  0.000000
1.521  0.000000  0.000000  0.000000  -29.524618560581725  10.04228506686713  23.02560389638467  56.80332568309086  11.37007100905418  2.7716604881944704  51.91388515733701  63.17113602771494  -45.48628453668288  22.698046446000923  0.000000
1.56  0.000000  0.000000  0.000000  -29.713241047718423  10.244170560781003  23.67443660800662  56.78143381779936  11.324080501803218  2.928378145482389  51.78142187315672  63.38251485643238  -45.50718910934733  22.514307821329478  0.000000
1.599  0.000000  0.000000  0.000000  -29.865997357300284  10.38350815671502  24.195092641506147  56.78178502475178  11.271022938027292  3.0404056912759576  51.69349809814835  63.53913854559001  -45.53529872539972  22.344790018192114  0.000000
1.638  0.000000  0.000000  0.000000  -29.97401470627156  10.471479502544321  24.58498286130527  56.80561878066928  11.211550407745907  3.1139184435627443  51.65798875619149  63.628801926297555  -45.55468125366643  22.168195413827814  0.000000
1.677  0.000000  0.000000  0.000000  -30.04050954838066  10.516063001990952  24.84129061810481  56.84839072467888  11.145297315598139  3.1485157785641547  51.68260099502751  63.63676360880031  -45.547756800894085  21.991794997831548  0.000000
1.716  0.000000  0.000000  0.000000  -30.078608781132317  10.520522415182699  24.959485404206955  56.90117400392906  11.071430994617636  3.135188424362334  51.77033537040141  63.54782267791593  -45.49531652434238  21.847731795354484  0.000000
1.755  0.000000  0.000000  0.000000  -30.103921713760833  10.484008280552377  24.935597231392503  56.95603988644322  10.986096035920951  3.0621607071860617  51.913093038458335  63.34971359681652  -45.3710366632599  21.771905284287268  0.000000
1.794  0.000000  0.000000  0.000000  -30.119430203228653  10.40088285978373  24.766598624568427  57.007956726621025  10.884403097360225  2.9186275330736047  52.08613434338031  63.037918988635724  -45.13893378701732  21.780635054422415  0.000000
1.833  0.000000  0.000000  0.000000  -30.112551362252262  10.258307312130679  24.451767325628985  57.05654883081445  10.765203022549446  2.6984603518670873  52.25151740010585  62.61581450458593  -44.75531044521811  21.865128323842345  0.000000
1.8719999999999999  0.000000  0.000000  0.000000  -30.063425465041377  10.041213897543694  23.99428463925753  57.10263681835212  10.630326532260066  2.399825498642283  52.37264989161789  62.09158834279052  -44.185463187396785  22.003852441057177  0.000000
